<?xml version="1.0" encoding="utf-8"?>
<!-- Generator: Adobe Illustrator 16.0.0, SVG Export Plug-In . SVG Version: 6.00 Build 0)  -->
<!DOCTYPE svg PUBLIC "-//W3C//DTD SVG 1.1//EN" "http://www.w3.org/Graphics/SVG/1.1/DTD/svg11.dtd">
<svg version="1.1" id="Calque_1" xmlns="http://www.w3.org/2000/svg" xmlns:xlink="http://www.w3.org/1999/xlink" x="0px" y="0px"
	 width="16px" height="16px" viewBox="0 0 16 16" enable-background="new 0 0 16 16" xml:space="preserve">
<g>
	<path d="M0,0v16.001h16V0H0z M10,2h1v1h-1V2z M5,2h1v1H5V2z M15,15H1V4h14V15z M5.479,12.854h0.784V6.006H5.594l-0.018,0.14
		C5.442,7.209,5.009,7.228,4.138,7.264L4.002,7.271v0.74h1.477V12.854z M9.971,12.172c-0.705,0-1.212-0.555-1.231-1.35l-0.005-0.159
		H7.951l0.003,0.168c0.025,1.293,0.819,2.163,1.978,2.163c1.166,0,2.079-1.042,2.079-2.372c0-1.446-0.811-2.418-2.017-2.418
		c-0.35,0-0.706,0.133-0.989,0.354l0.267-1.602h2.469V6.09H8.688L8.094,9.799h0.678l0.041-0.076c0.236-0.43,0.668-0.697,1.127-0.697
		c0.746,0,1.289,0.646,1.289,1.531C11.229,11.359,10.796,12.172,9.971,12.172z"/>
</g>
</svg>
