<?xml version="1.0" encoding="utf-8"?>
<!-- Generator: Adobe Illustrator 16.0.0, SVG Export Plug-In . SVG Version: 6.00 Build 0)  -->
<!DOCTYPE svg PUBLIC "-//W3C//DTD SVG 1.1//EN" "http://www.w3.org/Graphics/SVG/1.1/DTD/svg11.dtd">
<svg version="1.1" id="Calque_1" xmlns="http://www.w3.org/2000/svg" xmlns:xlink="http://www.w3.org/1999/xlink" x="0px" y="0px"
	 width="16px" height="16px" viewBox="0 0 16 16" enable-background="new 0 0 16 16" xml:space="preserve">
<g>
	<g>
		<path d="M0,1.333v0.593h1.185v10.667h6.519v1.48h-4.74v0.593h10.074v-0.593H8.296v-1.48h6.518V1.926H16V1.333H0z M14.222,12H1.778
			V1.926h12.444V12z M7.111,3.704H3.556V7.26h3.555V3.704z M6.519,6.667H4.148V4.296h2.371V6.667z M12.444,6.667H8.296V7.26h4.148
			V6.667z M12.444,3.704H8.296v0.593h4.148V3.704z M12.444,5.186H8.296v0.592h4.148V5.186z M12.444,8.444H3.556v0.593h8.889V8.444z
			 M12.444,10.222H3.556v0.593h8.889V10.222z"/>
	</g>
</g>
</svg>
