<?xml version="1.0" encoding="utf-8"?>
<!-- Generator: Adobe Illustrator 16.0.0, SVG Export Plug-In . SVG Version: 6.00 Build 0)  -->
<!DOCTYPE svg PUBLIC "-//W3C//DTD SVG 1.1//EN" "http://www.w3.org/Graphics/SVG/1.1/DTD/svg11.dtd">
<svg version="1.1" id="Calque_1" xmlns="http://www.w3.org/2000/svg" xmlns:xlink="http://www.w3.org/1999/xlink" x="0px" y="0px"
	 width="16px" height="16px" viewBox="0 0 16 16" enable-background="new 0 0 16 16" xml:space="preserve">
<g>
	<g>
		<path d="M3.333,4.333h9.333V1.667H3.333V4.333z M4,2.333h8v1.333H4V2.333z M12.667,0H3.333C2.597,0,2,0.597,2,1.333v13.333
			C2,15.403,2.597,16,3.333,16h9.333C13.403,16,14,15.403,14,14.667V1.333C14,0.597,13.403,0,12.667,0z M13.333,14.667
			c0,0.367-0.299,0.666-0.666,0.666H3.333c-0.368,0-0.667-0.299-0.667-0.666V1.333c0-0.367,0.299-0.667,0.667-0.667h9.333
			c0.367,0,0.666,0.3,0.666,0.667V14.667z M4,5.333H3.333V8H6V7.333H4V5.333z M4,8.667H3.333v2.667H6v-0.666H4V8.667z M4,12H3.333
			v2.667H6V14H4V12z M7.333,5.333H6.667V8h2.667V7.333h-2V5.333z M10.667,5.333H10V8h2.667V7.333h-2V5.333z M7.333,8.667H6.667
			v2.667h2.667v-0.666h-2V8.667z M7.333,12H6.667v2.667h2.667V14h-2V12z M10.667,8.667H10v6h2.667V14h-2V8.667z"/>
	</g>
</g>
</svg>
