<?xml version="1.0" encoding="utf-8"?>
<!-- Generator: Adobe Illustrator 16.0.0, SVG Export Plug-In . SVG Version: 6.00 Build 0)  -->
<!DOCTYPE svg PUBLIC "-//W3C//DTD SVG 1.1//EN" "http://www.w3.org/Graphics/SVG/1.1/DTD/svg11.dtd">
<svg version="1.1" id="Calque_1" xmlns="http://www.w3.org/2000/svg" xmlns:xlink="http://www.w3.org/1999/xlink" x="0px" y="0px"
	 width="16px" height="16px" viewBox="0 0 16 16" enable-background="new 0 0 16 16" xml:space="preserve">
<g>
	<g>
		<path d="M8,0C3.582,0,0,3.582,0,8s3.582,8,8,8c4.418,0,8-3.582,8-8S12.418,0,8,0z M8,14.261c-3.457,0-6.26-2.803-6.26-6.261
			S4.542,1.739,8,1.739c3.458,0,6.261,2.803,6.261,6.261S11.458,14.261,8,14.261z"/>
		<polygon points="8.609,3.478 7.391,3.478 7.391,8.252 10.353,11.213 11.213,10.353 8.609,7.748 		"/>
	</g>
</g>
</svg>
