<?xml version="1.0" encoding="utf-8"?>
<!-- Generator: Adobe Illustrator 16.0.0, SVG Export Plug-In . SVG Version: 6.00 Build 0)  -->
<!DOCTYPE svg PUBLIC "-//W3C//DTD SVG 1.1//EN" "http://www.w3.org/Graphics/SVG/1.1/DTD/svg11.dtd">
<svg version="1.1" id="Calque_1" xmlns="http://www.w3.org/2000/svg" xmlns:xlink="http://www.w3.org/1999/xlink" x="0px" y="0px"
	 width="16px" height="17.07px" viewBox="0 0 16 17.07" enable-background="new 0 0 16 17.07" xml:space="preserve">
<path d="M15.589,13.094c0,0-1.944-1.232-2.807-1.784c-0.332-0.213-0.667-0.321-0.998-0.321c-0.457,0-0.737,0.211-0.806,0.27
	c-0.002,0.001-0.16,0.171-0.52,0.457c-0.348,0.277-0.854,0.226-1.257-0.129c-0.515-0.456-3.355-3.795-4.244-4.93
	C4.78,6.427,4.711,6.22,4.746,6.022c0.071-0.408,0.581-0.743,0.855-0.923l0.097-0.064C6.251,4.659,6.311,4.008,6.131,3.56
	C6.012,3.263,4.864,0.924,4.726,0.666C4.563,0.355,4.293,0,3.652,0C3.287,0,2.334,0.135,1.723,0.55L1.587,0.64
	C1.032,1.003,0,1.679,0,3.096c0,1.798,1.412,4.472,4.314,8.172c3.104,3.958,6.797,5.802,8.32,5.802c1.392,0,2.74-1.624,3.177-2.41
	C16.229,13.901,15.867,13.319,15.589,13.094z"/>
</svg>
