<?xml version="1.0" encoding="utf-8"?>
<!-- Generator: Adobe Illustrator 16.0.0, SVG Export Plug-In . SVG Version: 6.00 Build 0)  -->
<!DOCTYPE svg PUBLIC "-//W3C//DTD SVG 1.1//EN" "http://www.w3.org/Graphics/SVG/1.1/DTD/svg11.dtd">
<svg version="1.1" id="Calque_1" xmlns="http://www.w3.org/2000/svg" xmlns:xlink="http://www.w3.org/1999/xlink" x="0px" y="0px"
	 width="16px" height="16px" viewBox="0 0 16 16" enable-background="new 0 0 16 16" xml:space="preserve">
<path d="M15.561,13.456l-3.159-3.161l0.422-0.422l-0.422-0.421l-1.263,1.264L9.032,8.608l2.53-2.533
	c0.337,0.121,0.69,0.181,1.052,0.181c0.833,0,1.618-0.325,2.209-0.916c0.91-0.912,1.168-2.266,0.657-3.451l-0.173-0.404
	l-1.358,1.358L12.857,2.86l0.014-1.043l1.384-1.385l-0.402-0.174C13.458,0.086,13.039,0,12.607,0c-0.835,0-1.618,0.325-2.208,0.916
	C9.535,1.779,9.258,3.041,9.666,4.18l-2.53,2.532L3.555,3.129l0.422-0.421L1.661,0.39L0.396,1.654l2.317,2.318l0.421-0.421
	l3.581,3.583l-2.53,2.532C3.846,9.544,3.492,9.483,3.13,9.483c-0.835,0-1.619,0.325-2.208,0.916
	c-0.913,0.911-1.17,2.269-0.657,3.454l0.174,0.403l1.384-1.385l1.042-0.014L2.85,13.951l-1.357,1.359l0.403,0.173
	c0.393,0.169,0.811,0.256,1.241,0.256c0.834,0,1.619-0.324,2.208-0.914c0.863-0.864,1.14-2.124,0.734-3.262L8.61,9.03l2.108,2.107
	l-1.265,1.265l0.421,0.422l0.422-0.422l3.158,3.16C13.735,15.845,14.109,16,14.508,16c0.397,0,0.771-0.155,1.053-0.438
	C16.142,14.982,16.141,14.037,15.561,13.456z M1.239,1.654L1.66,1.233l1.474,1.475L2.713,3.129L1.239,1.654z M5.456,11.608
	c0.414,0.96,0.204,2.057-0.533,2.795c-0.478,0.478-1.112,0.74-1.787,0.74c-0.194,0-0.385-0.021-0.571-0.064l0.876-0.878l0.026-1.947
	l-1.896,0.025l-0.905,0.905c-0.199-0.844,0.045-1.735,0.674-2.364c0.478-0.478,1.113-0.741,1.788-0.741
	c0.35,0,0.688,0.07,1.009,0.209l0.185,0.08l6.045-6.048l-0.08-0.186c-0.416-0.961-0.207-2.059,0.531-2.798
	c0.477-0.477,1.111-0.74,1.787-0.74c0.196,0,0.389,0.022,0.576,0.065l-0.905,0.905l-0.025,1.897L14.2,3.438l0.877-0.877
	c0.197,0.842-0.048,1.731-0.675,2.36c-0.479,0.477-1.112,0.74-1.788,0.74c-0.349,0-0.688-0.07-1.007-0.208l-0.186-0.08l-6.045,6.05
	L5.456,11.608z M15.14,15.142c-0.169,0.17-0.394,0.263-0.632,0.263c-0.239,0-0.464-0.093-0.633-0.263l-3.158-3.161l1.264-1.264
	l3.159,3.16C15.487,14.227,15.487,14.793,15.14,15.142z"/>
</svg>
